# xmcd CD database file
#
# Track frame offsets:
#	150
#	19075
#	35962
#	52287
#	78062
#	91025
#	109837
#	124762
#	137225
#	155150
#	175350
#	196875
#	210875
#	220637
#	238387
#	254362
#
# Disc length: 3649 seconds
#
# Revision: 2
# Processed by: cddbd v1.5.2PL0 Copyright (c) Steve Scherf et al.
# Submitted via: CDex 1.70beta3
#
DISCID=e40e3f10
DTITLE=various artist - FEMAIL in JAZZ
DYEAR=2002
DGENRE=Jazz
TTITLE0=I CAN SEE CREARLY NOW (J.Nash) - Holly Cole
TTITLE1=HELLO (Haven't I See You Before) (Warren - McNight lll - Kibble) - Dianne Reeves 
TTITLE2=IT'S ALL RIGHT (Stef) - Bet･E and Stef
TTITLE3=SATISFACTION (K.Richards - M.Jagger) - Tania Maria
TTITLE4=LOVE LETTERS (V.Young - E.Heyman) - Julie London
TTITLE5=MORE THAN THIS (B.Ferry) - Norah Jones - Charlie Hunter
TTITLE6=LAST TANGO IN PARIS (G.Barbieri) - Marlena Shaw
TTITLE7=MY FAVORITE THINGS (O.Hammerstein - R.Rodgers) - Sarah Vaughan
TTITLE8=THE CONTINENTAL (H.Magidson - C.Conrad) - Eliane Elias
TTITLE9=SET THEM FREE (Sting) - Caecilie Norby
TTITLE10=TENNESSEE WALTZ (P.W.King - R.Stewart) - Cassandra Wilson - Jacky Terrasson
TTITLE11=SOLITARY (Tolstoy - Littwald - Svensson) - Viktoria Tolstoy
TTITLE12=AGUA DE BEBER (de Moraes - Jobim - Gimble) - Wanda de Sah
TTITLE13=CAN'T HIDE LOVE (S.Scarborough) - Carmen McRae
TTITLE14=CLOSE TO YOU (H.David - B.Bacharach) - Nancy Wilson
TTITLE15=A MAN and A WOMAN (Lai - Barough - Keller) - Patricia Barber
EXTD=YEAR: 2002
EXTT0=
EXTT1=
EXTT2=
EXTT3=
EXTT4=
EXTT5=
EXTT6=
EXTT7=
EXTT8=
EXTT9=
EXTT10=
EXTT11=
EXTT12=
EXTT13=
EXTT14=
EXTT15=
PLAYORDER=
